<svg xmlns="http://www.w3.org/2000/svg" xmlns:xlink="http://www.w3.org/1999/xlink" fill="none" version="1.1" width="18.8150634765625" height="18.51861572265625" viewBox="0 0 18.8150634765625 18.51861572265625"><g><g><rect x="0" y="15.185783386230469" width="3.3834238052368164" height="3.3328359127044678" rx="0" fill="#036EB8" fill-opacity="1"/></g><g><rect x="6.7142462730407715" y="8.494355201721191" width="3.3834238052368164" height="3.3328359127044678" rx="0" fill="#036EB8" fill-opacity="1"/></g><g><path d="M6.675863742828369,18.5153311618042L6.675863742828369,15.1857211618042L13.43289374282837,15.1857211618042L13.43289374282837,8.6585111618042L16.81636374282837,8.6585111618042L16.81636374282837,15.414351161804198C16.81636374282837,17.1274511618042,15.40601374282837,18.518551161804197,13.66194374282837,18.518551161804197L6.675863742828369,18.518551161804197L6.675863742828369,18.5153311618042Z" fill="#036EB8" fill-opacity="1"/></g><g><path d="M10.1405,1.9670849189822652L10.1405,5.299924765434265L3.38342,5.299924765434265L3.38342,11.827124765434265L0,11.827124765434265L0,5.071294765434265C0,3.358184765434265,1.41031,1.9670847654342651,3.15437,1.9670847654342651L10.1405,1.9670849189822652Z" fill="#036EB8" fill-opacity="1"/></g><g><rect x="13.432605743408203" y="1.9670847654342651" width="3.3834238052368164" height="3.3328359127044678" rx="0" fill="#F8B62D" fill-opacity="1"/></g><g><rect x="16.81577491760254" y="0" width="1.999295949935913" height="1.9675002098083496" rx="0" fill="#F8B62D" fill-opacity="1"/></g><g><rect x="14.53473949432373" y="0" width="1.3743113279342651" height="1.3524551391601562" rx="0" fill="#F8B62D" fill-opacity="1"/></g></g></svg>