<svg xmlns="http://www.w3.org/2000/svg" xmlns:xlink="http://www.w3.org/1999/xlink" fill="none" version="1.1" width="32" height="32" viewBox="0 0 32 32"><defs><clipPath id="master_svg0_1_17305"><rect x="0" y="0" width="32" height="32" rx="16"/></clipPath></defs><g clip-path="url(#master_svg0_1_17305)"><rect x="0" y="0" width="32" height="32" rx="16" fill="#95CFFF" fill-opacity="1"/><g><path d="M18.9641725,20.521329375Q19.142902499999998,18.991227375,19.186342500000002,18.880859375C19.1131125,18.933534975,18.9095625,19.043902375,18.8388225,19.100340375C18.3907625,19.462798375,17.206712500000002,19.588216375000002,15.9990725,19.555607375C14.791432499999999,19.583199375,13.6073825,19.460289375,13.1593285,19.100340375C13.0885825,19.043902375,12.8850345,18.933534975,12.8118065,18.880859375C12.8552475,18.991227375,13.0352135,20.522579375,13.0339725,20.521329375C13.0774135,23.323159375,12.5722665,23.724499375,12.3203125,24.646319375C13.1233355,26.103679375,14.2887725,27.519639375,15.0917925,28.976959375C15.2655525,29.291759374999998,15.6416225,29.364559375,15.8873725,29.592759375L15.8873725,29.718259375000002L15.9742525,29.760859375000003L16.0003125,29.719459375L16.0263725,29.760859375000003L16.1132525,29.718259375000002L16.1132525,29.592759375C16.3614825,29.364559375,16.7338325,29.291759374999998,16.9088325,28.976959375C17.7118525,27.519639375,18.8772925,26.103679375,19.6803125,24.646319375C19.4258825,23.727009375,18.9207325,23.323159375,18.9641725,20.521329375Z" fill="#FED0B9" fill-opacity="1"/></g><g><path d="M16.515437187499998,25.921875L16.1471971875,26.055208L15.8825571875,27.798995L17.7075471875,27.529715L18.5601171875,26.18985L16.515437187499998,25.921875ZM15.1647971875,25.921875L15.5330371875,26.055208L15.7976771875,28.321875L13.3498001875,27.398995L13.1201171875,26.18985L15.1647971875,25.921875Z" fill="#E1E6E4" fill-opacity="1"/></g><g><path d="M22.47235625,14.393030625C22.02165625,14.614120625,21.70125625,15.053400625,21.503756250000002,15.513050625C22.06995625,13.025740625000001,21.933856249999998,10.004610625,19.72295625,8.750773625C17.402336249999998,7.441664625,13.554086250000001,7.483847625,11.55534625,9.246780625C10.23845625,10.410430625,9.24054625,12.977740625,10.20479625,15.475230625C9.98677625,15.038860625,9.808266249999999,14.368300625,9.31516625,14.398850625C7.75538325,14.494850625,8.10655385,16.381420625,8.47674625,17.089790625C8.84693925,17.798170624999997,9.55513625,18.347990625,10.35111625,18.381490624999998C10.44748625,18.373590625,10.54386625,18.396490625,10.62620625,18.446890625C10.67656625,18.496390625,10.71203625,18.558890625,10.72862625,18.627290625C11.14271625,19.878190625000002,11.52754625,20.922590624999998,12.60300625,21.785090625000002C13.67846625,22.647690625,15.11680625,23.219290625,16.534656249999998,22.985190625C18.211456249999998,22.708790625,19.91905625,21.648390624999998,20.52185625,20.003290624999998C20.70775625,19.494190625,20.64915625,18.747990625,21.19935625,18.457090625C21.299856249999998,18.413090625000002,21.40735625,18.386990625,21.51685625,18.379990624999998C22.33485625,18.253490624999998,22.98005625,17.659980625,23.33715625,16.939970625C23.59705625,16.435150625,23.71285625,15.869230625,23.67215625,15.303580625C23.61075625,14.631580625,22.91575625,14.177750625,22.47235625,14.393030625Z" fill="#FEE1D2" fill-opacity="1"/></g><g><path d="M25.8575,26.889909375C23.9334,25.006454375,20.751,24.066591975,20.7083,24.169776785C20.6656,24.272961375,19.2364,27.685559375,15.8367,27.685559375C12.20848,27.685559375,11.34066,24.270477375,11.296700000000001,24.169776785C11.252749999999999,24.069076075,8.06907,25.006454375,6.14757,26.889909375C4.320251,28.667699374999998,4.111774,33.132049375,4,34.722109375L28,34.722109375C27.8882,33.132049375,27.6798,28.667699374999998,25.8575,26.889909375Z" fill="#7586BE" fill-opacity="1"/></g><g><path d="M20.6580228125,24.065908C20.6174928125,24.160334,19.173572812499998,27.62638,15.7448928125,27.62638C12.0856828125,27.62638,11.2104658125,24.167889,11.1661338125,24.065908C11.1496678125,24.0268788,11.5461138125,24.242169,10.8798828125,24.491454C11.7665028125,26.70227,12.9811728125,28.1111,15.627092812499999,28.15894C18.4592128125,28.21057,19.9576028125,26.363599999999998,20.7998828125,24.0596137C20.414842812499998,23.9362316,20.6706928125,24.0382097,20.6580228125,24.065908Z" fill="#596CA8" fill-opacity="1"/></g><g><path d="M16.2732965625,26.175445625000002C16.5954165625,26.410215625,17.398176562499998,26.924895625,18.9357765625,27.513095625C18.9702465625,27.526535625,19.0088665625,27.522725625,19.0402065625,27.502775624999998C19.2918565625,27.340245625,20.6218365625,26.638525625,21.093726562500002,24.569495625000002C21.195826562500002,24.159275625,20.9898265625,23.734175625,20.6092565625,23.569809625L19.3761665625,23.047392785C19.320176562500002,23.028665225,19.2590165625,23.052247425,19.2289465625,23.104149525C19.0150365625,23.464036625,18.1317465625,24.814585625,16.2846265625,25.931655625C16.1987365625,25.986505625,16.1928765625,26.112475625000002,16.2732965625,26.175445625000002ZM15.5661565625,26.175445625000002C15.2440465625,26.410215625,14.4412765625,26.924895625,12.903686562499999,27.513095625C12.8692065625,27.526535625,12.8305865625,27.522715625,12.7992465625,27.502775624999998C12.5475965625,27.340245625,11.2176175625,26.638525625,10.7457702625,24.569495625000002C10.6436131625,24.159275625,10.8496095625,23.734175625,11.2301995625,23.569809625L12.4632965625,23.047392785C12.5192765625,23.028665225,12.580436562500001,23.052247425,12.6105065625,23.104149525C12.8244165625,23.464036625,13.7077065625,24.814585625,15.5548365625,25.931655625C15.6407265625,25.986505625,15.6465765625,26.112475625000002,15.5661565625,26.175445625000002Z" fill="#FFFFFF" fill-opacity="1"/></g><g><path d="M10.2386409375,15.48258125Q10.8484609375,12.88944125,10.8499309375,12.88797125C11.2187609375,11.102421249999999,13.0261609375,9.92330125,14.7703809375,10.48129125L14.8365109375,10.503321249999999C15.3562209375,10.672931250000001,15.9187509375,10.65683125,16.427910937500002,10.45780125C18.075140937500002,9.804371249999999,19.8825609375,10.70449125,20.485060937500002,12.33733125L21.6605609375,15.52078125Q21.9735609375,14.83358125,22.395260937499998,14.53843125Q24.111560937500002,8.277251249999999,19.750260937500002,6.25235125C15.409590937499999,4.24066625,10.3385609375,4.84417165,9.4436769375,5.03652925C9.3953229375,5.05451325,9.3800919375,5.11539325,9.4142889375,5.15400025C9.6655629375,5.42858725,10.3077009375,7.0629012499999995,9.6067839375,7.76478125C8.7530419375,8.61791125,8.8000639375,13.23891125,9.4231049375,14.39012125C9.4142889375,14.39600125,10.1254909375,14.84528125,10.2386409375,15.48258125Z" fill="#1A1716" fill-opacity="1"/></g></g></svg>