<svg xmlns="http://www.w3.org/2000/svg" xmlns:xlink="http://www.w3.org/1999/xlink" fill="none" version="1.1" width="16" height="16" viewBox="0 0 16 16"><defs><clipPath id="master_svg0_1_17273"><rect x="0" y="0" width="16" height="16" rx="0"/></clipPath></defs><g><g clip-path="url(#master_svg0_1_17273)"></g><g><path d="M2.91705322265625,4.62451171875L9.129543222656249,4.62451171875Q10.97420322265625,4.62451171875,12.27857322265625,5.92888271875Q13.58295322265625,7.23325171875,13.58295322265625,9.07791171875Q13.58295322265625,10.92258171875,12.27857322265625,12.22694171875Q10.97420322265625,13.53132171875,9.129543222656249,13.53132171875L3.68899522265625,13.53132171875Q3.63974922265625,13.53132171875,3.59145022265625,13.52171171875Q3.54315122265625,13.51210171875,3.49765322265625,13.49325171875Q3.45215622265625,13.47441171875,3.41121022265625,13.44705171875Q3.37026422265625,13.41969171875,3.33544222265625,13.38487171875Q3.30062022265625,13.35005171875,3.27326022265625,13.30910171875Q3.24590122265625,13.26815171875,3.22705522265625,13.22266171875Q3.20821022265625,13.17716171875,3.19860322265625,13.12886171875Q3.18899522265625,13.080561718750001,3.18899522265625,13.03132171875Q3.18899522265625,12.98207171875,3.19860322265625,12.93377171875Q3.20821022265625,12.88547171875,3.22705522265625,12.83997171875Q3.24590122265625,12.79448171875,3.27326022265625,12.75353171875Q3.30062022265625,12.71258171875,3.33544222265625,12.67776171875Q3.37026422265625,12.64294171875,3.41121022265625,12.61558171875Q3.45215622265625,12.588221718749999,3.49765322265625,12.56938171875Q3.54315022265625,12.550531718750001,3.59145022265625,12.540921718749999Q3.63974922265625,12.53132171875,3.68899522265625,12.53132171875L9.129543222656249,12.53132171875Q10.55998322265625,12.53132171875,11.57147322265625,11.519841718750001Q12.58294322265625,10.508361718749999,12.58294322265625,9.07791171875Q12.58294322265625,7.647471718749999,11.57147322265625,6.63599171875Q10.55998322265625,5.62451171875,9.129543222656249,5.62451171875L2.91705322265625,5.62451171875Q2.86780752265625,5.62451171875,2.81950812265625,5.61490471875Q2.77120822265625,5.60529671875,2.72571122265625,5.58645171875Q2.68021422265625,5.56760571875,2.63926822265625,5.54024671875Q2.59832222265625,5.51288671875,2.56350022265625,5.47806471875Q2.52867822265625,5.44324271875,2.50131822265625,5.40229671875Q2.47395922265625,5.36135071875,2.4551132226562498,5.31585371875Q2.43626822265625,5.27035671875,2.42666022265625,5.22205681875Q2.41705322265625,5.17375741875,2.41705322265625,5.12451171875Q2.41705322265625,5.07526601875,2.42666022265625,5.02696661875Q2.43626822265625,4.97866671875,2.4551132226562498,4.93316971875Q2.47395922265625,4.88767271875,2.50131822265625,4.84672671875Q2.52867822265625,4.80578071875,2.56350022265625,4.77095871875Q2.59832222265625,4.73613671875,2.63926822265625,4.70877671875Q2.68021422265625,4.68141771875,2.72571122265625,4.66257171875Q2.77120822265625,4.64372671875,2.81950812265625,4.63411871875Q2.86780752265625,4.62451171875,2.91705322265625,4.62451171875Z" fill-rule="evenodd" fill="#303133" fill-opacity="1"/></g><g transform="matrix(0.7071067690849304,0.7071067690849304,-0.7071067690849304,0.7071067690849304,3.425157830497483,-3.1031687516442616)"><path d="M4.95843505859375,2.58294677734375Q4.95843505859375,2.53370107734375,4.96804205859375,2.48540167734375Q4.97765005859375,2.43710177734375,4.99649505859375,2.39160477734375Q5.01534105859375,2.34610777734375,5.04270005859375,2.30516177734375Q5.07006005859375,2.26421577734375,5.10488205859375,2.22939377734375Q5.13970405859375,2.19457177734375,5.18065005859375,2.16721177734375Q5.22159605859375,2.13985277734375,5.26709305859375,2.1210067773437498Q5.31259005859375,2.10216177734375,5.36088995859375,2.09255377734375Q5.40918935859375,2.08294677734375,5.45843505859375,2.08294677734375Q5.50768075859375,2.08294677734375,5.55598015859375,2.09255377734375Q5.60428005859375,2.10216177734375,5.64977705859375,2.1210067773437498Q5.69527405859375,2.13985277734375,5.73622005859375,2.16721177734375Q5.77716605859375,2.19457177734375,5.81198805859375,2.22939377734375Q5.84681005859375,2.26421577734375,5.87417005859375,2.30516177734375Q5.90152905859375,2.34610777734375,5.92037505859375,2.39160477734375Q5.93922005859375,2.43710177734375,5.94882805859375,2.48540167734375Q5.95843505859375,2.53370107734375,5.95843505859375,2.58294677734375L5.95843505859375,5.67701677734375L9.05267505859375,5.67701677734375Q9.10192505859375,5.67701677734375,9.150225058593751,5.68661677734375Q9.19852505859375,5.69622677734375,9.24402505859375,5.71507677734375Q9.28951505859375,5.73391677734375,9.33046505859375,5.76127677734375Q9.371415058593751,5.788636777343751,9.40623505859375,5.8234567773437504Q9.44105505859375,5.85828677734375,9.468415058593749,5.89922677734375Q9.49577505859375,5.9401767773437495,9.514615058593751,5.98566677734375Q9.53346505859375,6.03116677734375,9.54307505859375,6.07946677734375Q9.55267505859375,6.12776677734375,9.55267505859375,6.17701677734375Q9.55267505859375,6.22625677734375,9.54307505859375,6.27455677734375Q9.53346505859375,6.32285677734375,9.514615058593751,6.368356777343751Q9.49577505859375,6.413856777343749,9.468415058593749,6.45479677734375Q9.44105505859375,6.49574677734375,9.40623505859375,6.530566777343751Q9.371415058593751,6.56538677734375,9.33046505859375,6.59274677734375Q9.28951505859375,6.62010677734375,9.24402505859375,6.63895677734375Q9.19852505859375,6.65779677734375,9.150225058593751,6.66740677734375Q9.10192505859375,6.67701677734375,9.05267505859375,6.67701677734375L5.45843505859375,6.67701677734375Q5.40918935859375,6.67701677734375,5.36088995859375,6.66740677734375Q5.31259005859375,6.65779677734375,5.26709305859375,6.63895677734375Q5.22159605859375,6.62010677734375,5.18065005859375,6.59274677734375Q5.13970405859375,6.56538677734375,5.10488205859375,6.530566777343751Q5.07006005859375,6.49574677734375,5.04270005859375,6.45479677734375Q5.01534105859375,6.413856777343749,4.99649505859375,6.368356777343751Q4.97765005859375,6.32285677734375,4.96804205859375,6.27455677734375Q4.95843505859375,6.22625677734375,4.95843505859375,6.17701677734375L4.95843505859375,2.58294677734375Z" fill-rule="evenodd" fill="#303133" fill-opacity="1"/></g></g></svg>