<svg xmlns="http://www.w3.org/2000/svg" xmlns:xlink="http://www.w3.org/1999/xlink" fill="none" version="1.1" width="16" height="16" viewBox="0 0 16 16"><defs><clipPath id="master_svg0_1_17246"><rect x="0" y="0" width="16" height="16" rx="0"/></clipPath></defs><g><g clip-path="url(#master_svg0_1_17246)"><g transform="matrix(-0.7071067690849304,-0.7071067690849304,0.7071067690849304,-0.7071067690849304,-1.6833360076543613,23.599553123849546)"><path d="M3.65258047265625,14.620226982421876Q3.54595947265625,14.790596982421874,3.54595947265625,14.991576982421876L3.54595947265625,21.949946982421874Q3.54595947265625,22.239906982421875,3.75098547265625,22.444906982421877Q3.95601067265625,22.649906982421875,4.24595947265625,22.649906982421875L7.33270947265625,22.649906982421875Q7.62264947265625,22.649906982421875,7.82767947265625,22.444906982421877Q8.032699472656251,22.239906982421875,8.03270947265625,21.949946982421874L8.03272947265625,14.991576982421876Q8.03272947265625,14.790586982421875,7.92610947265625,14.620216982421875L6.38271947265625,12.154058012421874Q6.17704947265625,11.825408982421875,5.78934947265625,11.825408982421875Q5.4016394726562496,11.825408982421875,5.19596947265625,12.154058722421874L3.65258047265625,14.620226982421876ZM4.54595947265625,15.077716982421876L4.54595947265625,21.649946982421874L7.03270947265625,21.649946982421874L7.03272947265625,15.077706982421875L5.78934947265625,13.090911982421876L4.54595947265625,15.077716982421876Z" fill-rule="evenodd" fill="#409EFF" fill-opacity="1"/></g></g><g><path d="M9.65753173828125,9.670654296875L13.51408173828125,9.670654296875Q13.56332173828125,9.670654296875,13.61162173828125,9.680261296875Q13.65992173828125,9.689869296874999,13.705421738281249,9.708714296875Q13.75092173828125,9.727560296875,13.79186173828125,9.754919296875Q13.83281173828125,9.782279296875,13.86763173828125,9.817101296875Q13.90245173828125,9.851923296875,13.92981173828125,9.892869296875Q13.95717173828125,9.933815296875,13.97602173828125,9.979312296875Q13.99486173828125,10.024809296875,14.00447173828125,10.073109196875Q14.01408173828125,10.121408596875,14.01408173828125,10.170654296875Q14.01408173828125,10.219899996875,14.00447173828125,10.268199396875Q13.99486173828125,10.316499296875,13.97602173828125,10.361996296875Q13.95717173828125,10.407493296875,13.92981173828125,10.448439296875Q13.90245173828125,10.489385296875,13.86763173828125,10.524207296875Q13.83281173828125,10.559029296875,13.79186173828125,10.586389296875Q13.75092173828125,10.613748296875,13.705421738281249,10.632594296875Q13.65992173828125,10.651439296875001,13.61162173828125,10.661047296875Q13.56332173828125,10.670654296875,13.51408173828125,10.670654296875L9.65753173828125,10.670654296875Q9.60828603828125,10.670654296875,9.55998663828125,10.661047296875Q9.51168673828125,10.651439296875001,9.46618973828125,10.632594296875Q9.42069273828125,10.613748296875,9.37974673828125,10.586389296875Q9.33880073828125,10.559029296875,9.30397873828125,10.524207296875Q9.26915673828125,10.489385296875,9.24179673828125,10.448439296875Q9.21443773828125,10.407493296875,9.19559173828125,10.361996296875Q9.176746738281249,10.316499296875,9.16713873828125,10.268199396875Q9.15753173828125,10.219899996875,9.15753173828125,10.170654296875Q9.15753173828125,10.121408596875,9.16713873828125,10.073109196875Q9.176746738281249,10.024809296875,9.19559173828125,9.979312296875Q9.21443773828125,9.933815296875,9.24179673828125,9.892869296875Q9.26915673828125,9.851923296875,9.30397873828125,9.817101296875Q9.33880073828125,9.782279296875,9.37974673828125,9.754919296875Q9.42069273828125,9.727560296875,9.46618973828125,9.708714296875Q9.51168673828125,9.689869296874999,9.55998663828125,9.680261296875Q9.60828603828125,9.670654296875,9.65753173828125,9.670654296875Z" fill-rule="evenodd" fill="#409EFF" fill-opacity="1"/></g><g><path d="M2.5081787109375,12.530532836914062L13.5141787109375,12.530532836914062Q13.5633787109375,12.530532836914062,13.6116787109375,12.540139836914063Q13.6599787109375,12.549747836914062,13.7054787109375,12.568592836914062Q13.7509787109375,12.587438836914062,13.7918787109375,12.614797836914063Q13.8328787109375,12.642157836914063,13.8676787109375,12.676979836914063Q13.9024787109375,12.711801836914063,13.9298787109375,12.752747836914063Q13.9571787109375,12.793693836914063,13.9760787109375,12.839190836914062Q13.9948787109375,12.884687836914063,14.0044787109375,12.932987736914063Q14.0140787109375,12.981287136914062,14.0141787109375,13.030532836914062Q14.0140787109375,13.079778536914063,14.0044787109375,13.128077936914062Q13.9948787109375,13.176377836914062,13.9760787109375,13.221874836914063Q13.9571787109375,13.267371836914062,13.9298787109375,13.308317836914062Q13.9024787109375,13.349263836914062,13.8676787109375,13.384085836914062Q13.8328787109375,13.418907836914062,13.7918787109375,13.446267836914062Q13.7509787109375,13.473626836914063,13.7054787109375,13.492472836914063Q13.6599787109375,13.511317836914063,13.6116787109375,13.520925836914062Q13.5633787109375,13.530532836914062,13.5141787109375,13.530532836914062L2.5081787109375,13.530532836914062Q2.4589330109375,13.530532836914062,2.4106336109375,13.520925836914062Q2.3623337109375,13.511317836914063,2.3168367109375,13.492472836914063Q2.2713397109375,13.473626836914063,2.2303937109375,13.446267836914062Q2.1894477109375,13.418907836914062,2.1546257109375,13.384085836914062Q2.1198037109375,13.349263836914062,2.0924437109375,13.308317836914062Q2.0650847109375,13.267371836914062,2.0462387109374998,13.221874836914063Q2.0273937109375,13.176377836914062,2.0177857109375,13.128077936914062Q2.0081787109375,13.079778536914063,2.0081787109375,13.030532836914062Q2.0081787109375,12.981287136914062,2.0177857109375,12.932987736914063Q2.0273937109375,12.884687836914063,2.0462387109374998,12.839190836914062Q2.0650847109375,12.793693836914063,2.0924437109375,12.752747836914063Q2.1198037109375,12.711801836914063,2.1546257109375,12.676979836914063Q2.1894477109375,12.642157836914063,2.2303937109375,12.614797836914063Q2.2713397109375,12.587438836914062,2.3168367109375,12.568592836914062Q2.3623337109375,12.549747836914062,2.4106336109375,12.540139836914063Q2.4589330109375,12.530532836914062,2.5081787109375,12.530532836914062Z" fill-rule="evenodd" fill="#409EFF" fill-opacity="1"/></g></g></svg>