<svg xmlns="http://www.w3.org/2000/svg" xmlns:xlink="http://www.w3.org/1999/xlink" fill="none" version="1.1" width="16" height="16" viewBox="0 0 16 16"><defs><clipPath id="master_svg0_1_17257"><rect x="0" y="0" width="16" height="16" rx="0"/></clipPath></defs><g clip-path="url(#master_svg0_1_17257)"><g><rect x="5.37109375" y="2.0302734375" width="5.257846832275391" height="2.0050463676452637" rx="1" fill-opacity="0" stroke-opacity="1" stroke="#409EFF" fill="none" stroke-width="1"/></g><g><path d="M5.3710915625,3.030273125L5.3710915625,3.035320125Q5.3710915625,3.301960125,5.5038515624999995,3.533203125L3.8291015625,3.533203125Q3.6219915625,3.533203125,3.4755515624999997,3.6796531249999997Q3.3291015625,3.826093125,3.3291015625,4.033203125L3.3291015625,13.066803125Q3.3291015625,13.273903125,3.4755515624999997,13.420403125Q3.6219915625,13.566803125,3.8291015625,13.566803125L12.1709615625,13.566803125Q12.3781015625,13.566803125,12.5245015625,13.420403125Q12.6710015625,13.273903125,12.6710015625,13.066803125L12.6710015625,4.033203125Q12.6710015625,3.826093125,12.5245015625,3.6796531249999997Q12.3781015625,3.533203125,12.1709615625,3.533203125L10.4961815625,3.533203125Q10.6289415625,3.301960125,10.6289415625,3.035320125L10.6289415625,3.030273125Q10.6289415625,2.764134125,10.4966515625,2.533203125L12.1709615625,2.533203125Q12.7923015625,2.533203125,13.2316015625,2.972543125Q13.6710015625,3.411882125,13.6710015625,4.033203125L13.6710015625,13.066803125Q13.6710015625,13.688103125,13.2316015625,14.127503125Q12.7923015625,14.566803125,12.1709615625,14.566803125L3.8291015625,14.566803125Q3.2077815625,14.566803125,2.7684415625,14.127503125Q2.3291015625,13.688103125,2.3291015625,13.066803125L2.3291015625,4.033203125Q2.3291015625,3.411883125,2.7684415625,2.972543125Q3.2077815625,2.533203125,3.8291015625,2.533203125L5.5033815624999995,2.533203125Q5.3710915625,2.764134125,5.3710915625,3.030273125Z" fill-rule="evenodd" fill="#409EFF" fill-opacity="1"/></g><g><path d="M5.14453125,5.9384765625L8.30119125,5.9384765625Q8.35044125,5.9384765625,8.39874125,5.9480835625Q8.44703125,5.9576915625,8.492531249999999,5.9765365625Q8.53803125,5.9953825625,8.57898125,6.0227415625Q8.61992125,6.0501015625,8.65474125,6.0849235625Q8.68957125,6.1197455625,8.71692125,6.1606915625Q8.74428125,6.2016375625,8.76313125,6.2471345625Q8.78198125,6.2926315625,8.79158125,6.3409314625Q8.80119125,6.3892308625,8.80119125,6.4384765625Q8.80119125,6.4877222625,8.79158125,6.5360216625Q8.78198125,6.5843215625,8.76313125,6.6298185625Q8.74428125,6.6753155625,8.71692125,6.7162615625Q8.68957125,6.7572075625,8.65474125,6.7920295625Q8.61992125,6.8268515625,8.57898125,6.8542115625Q8.53803125,6.8815705625,8.492531249999999,6.9004165625Q8.44703125,6.9192615625,8.39874125,6.9288695625Q8.35044125,6.9384765625,8.30119125,6.9384765625L5.14453125,6.9384765625Q5.09528555,6.9384765625,5.04698615,6.9288695625Q4.99868625,6.9192615625,4.95318925,6.9004165625Q4.90769225,6.8815705625,4.86674625,6.8542115625Q4.82580025,6.8268515625,4.79097825,6.7920295625Q4.75615625,6.7572075625,4.72879625,6.7162615625Q4.70143725,6.6753155625,4.68259125,6.6298185625Q4.66374625,6.5843215625,4.65413825,6.5360216625Q4.64453125,6.4877222625,4.64453125,6.4384765625Q4.64453125,6.3892308625,4.65413825,6.3409314625Q4.66374625,6.2926315625,4.68259125,6.2471345625Q4.70143725,6.2016375625,4.72879625,6.1606915625Q4.75615625,6.1197455625,4.79097825,6.0849235625Q4.82580025,6.0501015625,4.86674625,6.0227415625Q4.90769225,5.9953825625,4.95318925,5.9765365625Q4.99868625,5.9576915625,5.04698615,5.9480835625Q5.09528555,5.9384765625,5.14453125,5.9384765625Z" fill-rule="evenodd" fill="#409EFF" fill-opacity="1"/></g><g><path d="M5.14453125,8.4013671875L10.85613125,8.4013671875Q10.90537125,8.4013671875,10.95367125,8.4109741875Q11.00197125,8.420582187499999,11.047471250000001,8.4394271875Q11.09296125,8.4582731875,11.13391125,8.4856321875Q11.17486125,8.5129921875,11.20968125,8.5478141875Q11.244501249999999,8.5826361875,11.27186125,8.6235821875Q11.29922125,8.6645281875,11.31807125,8.7100251875Q11.33691125,8.7555221875,11.34652125,8.8038220875Q11.35613125,8.8521214875,11.35613125,8.9013671875Q11.35613125,8.9506128875,11.34652125,8.9989122875Q11.33691125,9.0472121875,11.31807125,9.0927091875Q11.29922125,9.1382061875,11.27186125,9.1791521875Q11.244501249999999,9.2200981875,11.20968125,9.2549201875Q11.17486125,9.2897421875,11.13391125,9.3171021875Q11.09296125,9.3444611875,11.047471250000001,9.3633071875Q11.00197125,9.382152187500001,10.95367125,9.3917601875Q10.90537125,9.4013671875,10.85613125,9.4013671875L5.14453125,9.4013671875Q5.09528555,9.4013671875,5.04698615,9.3917601875Q4.99868625,9.382152187500001,4.95318925,9.3633071875Q4.90769225,9.3444611875,4.86674625,9.3171021875Q4.82580025,9.2897421875,4.79097825,9.2549201875Q4.75615625,9.2200981875,4.72879625,9.1791521875Q4.70143725,9.1382061875,4.68259125,9.0927091875Q4.66374625,9.0472121875,4.65413825,8.9989122875Q4.64453125,8.9506128875,4.64453125,8.9013671875Q4.64453125,8.8521214875,4.65413825,8.8038220875Q4.66374625,8.7555221875,4.68259125,8.7100251875Q4.70143725,8.6645281875,4.72879625,8.6235821875Q4.75615625,8.5826361875,4.79097825,8.5478141875Q4.82580025,8.5129921875,4.86674625,8.4856321875Q4.90769225,8.4582731875,4.95318925,8.4394271875Q4.99868625,8.420582187499999,5.04698615,8.4109741875Q5.09528555,8.4013671875,5.14453125,8.4013671875Z" fill-rule="evenodd" fill="#409EFF" fill-opacity="1"/></g><g><path d="M5.14453125,10.8642578125L10.85613125,10.8642578125Q10.90537125,10.8642578125,10.95367125,10.8738648125Q11.00197125,10.883472812499999,11.047471250000001,10.9023178125Q11.09296125,10.9211638125,11.13391125,10.9485228125Q11.17486125,10.9758828125,11.20968125,11.0107048125Q11.244501249999999,11.0455268125,11.27186125,11.0864728125Q11.29922125,11.1274188125,11.31807125,11.1729158125Q11.33691125,11.2184128125,11.34652125,11.2667127125Q11.35613125,11.3150121125,11.35613125,11.3642578125Q11.35613125,11.4135035125,11.34652125,11.4618029125Q11.33691125,11.5101028125,11.31807125,11.5555998125Q11.29922125,11.6010968125,11.27186125,11.6420428125Q11.244501249999999,11.6829888125,11.20968125,11.7178108125Q11.17486125,11.7526328125,11.13391125,11.7799928125Q11.09296125,11.8073518125,11.047471250000001,11.8261978125Q11.00197125,11.845042812500001,10.95367125,11.8546508125Q10.90537125,11.8642578125,10.85613125,11.8642578125L5.14453125,11.8642578125Q5.09528555,11.8642578125,5.04698615,11.8546508125Q4.99868625,11.845042812500001,4.95318925,11.8261978125Q4.90769225,11.8073518125,4.86674625,11.7799928125Q4.82580025,11.7526328125,4.79097825,11.7178108125Q4.75615625,11.6829888125,4.72879625,11.6420428125Q4.70143725,11.6010968125,4.68259125,11.5555998125Q4.66374625,11.5101028125,4.65413825,11.4618029125Q4.64453125,11.4135035125,4.64453125,11.3642578125Q4.64453125,11.3150121125,4.65413825,11.2667127125Q4.66374625,11.2184128125,4.68259125,11.1729158125Q4.70143725,11.1274188125,4.72879625,11.0864728125Q4.75615625,11.0455268125,4.79097825,11.0107048125Q4.82580025,10.9758828125,4.86674625,10.9485228125Q4.90769225,10.9211638125,4.95318925,10.9023178125Q4.99868625,10.883472812499999,5.04698615,10.8738648125Q5.09528555,10.8642578125,5.14453125,10.8642578125Z" fill-rule="evenodd" fill="#409EFF" fill-opacity="1"/></g></g></svg>