<svg xmlns="http://www.w3.org/2000/svg" xmlns:xlink="http://www.w3.org/1999/xlink" fill="none" version="1.1" width="125.60137939453125" height="17.67724609375" viewBox="0 0 125.60137939453125 17.67724609375"><g><g><path d="M17.79956369743347,15.6785Q17.79956369743347,16.5002,17.23336369743347,17.0776Q16.66706369743347,17.655,15.876463697433472,17.655L1.3034636974334717,17.655L1.3034636974334717,10.6152L16.11156369743347,10.6152L16.11156369743347,10.2155L17.79956369743347,10.2155L17.79956369743347,15.6785ZM2.991543697433472,12.3696L2.991543697433472,13.2357L16.11156369743347,13.2357L16.11156369743347,12.3696L2.991543697433472,12.3696ZM2.991543697433472,15.9006L15.876463697433472,15.9006Q16.11156369743347,15.9006,16.11156369743347,15.6622L16.11156369743347,14.9901L2.991543697433472,14.9901L2.991543697433472,15.9006ZM29.76566369743347,6.88435L31.453763697433473,6.88435L31.453763697433473,15.5231Q31.453763697433473,15.9672,31.28286369743347,16.3448Q31.11186369743347,16.7223,30.81276369743347,17.011Q30.513563697433472,17.2997,30.118263697433473,17.4663Q29.72296369743347,17.6328,29.274263697433472,17.6328L27.54346369743347,17.6328L27.54346369743347,15.8784L29.274263697433472,15.8784Q29.50926369743347,15.8784,29.63746369743347,15.7674Q29.76566369743347,15.6563,29.76566369743347,15.5231L29.76566369743347,14.5682L23.44076369743347,14.5682L23.44076369743347,17.6328L21.774063697433473,17.6328L21.774063697433473,7.26187L29.76566369743347,7.26187L29.76566369743347,6.88435ZM23.44076369743347,9.01627L23.44076369743347,10.1044L29.76566369743347,10.1044L29.76566369743347,9.01627L23.44076369743347,9.01627ZM29.76566369743347,12.8138L29.76566369743347,11.8588L23.44076369743347,11.8588L23.44076369743347,12.8138L29.76566369743347,12.8138ZM30.193063697433473,2.08751L32.09476369743347,5.59631L30.620363697433472,6.4624L30.128963697433473,5.55189L21.38946369743347,6.4624L21.38946369743347,5.12995L24.89376369743347,0L26.26136369743347,0.999341L23.91086369743347,4.44151L29.231463697433473,3.88632L28.71866369743347,2.9314L30.193063697433473,2.08751ZM38.569363697433474,4.73021L40.25736369743347,4.73021L40.25736369743347,6.37357Q40.25736369743347,7.21746,39.701863697433474,7.79486Q39.14626369743347,8.37225,38.33426369743347,8.37225L32.54356369743347,8.37225L32.54356369743347,0.577396L34.23166369743347,0.577396L34.23166369743347,4.13061Q35.12906369743347,3.70866,35.91966369743347,3.15347Q36.71026369743347,2.59829,37.30856369743347,2.09861Q37.90696369743347,1.59894,38.259463697433475,1.24362Q38.61206369743347,0.888303,38.61206369743347,0.888303L39.808663697433474,2.10972Q39.76596369743347,2.15413,39.31716369743347,2.59829Q38.86846369743347,3.04244,38.10986369743347,3.66425Q37.35136369743347,4.28606,36.35776369743347,4.93008Q35.36416369743347,5.5741,34.23166369743347,6.01825L34.23166369743347,6.61786L38.33426369743347,6.61786Q38.569363697433474,6.61786,38.569363697433474,6.35449L38.569363697433474,4.73021ZM38.569363697433474,13.8131L40.25736369743347,13.8131L40.25736369743347,15.6341Q40.25736369743347,16.4558,39.701863697433474,17.0443Q39.14626369743347,17.6328,38.33426369743347,17.6328L32.54356369743347,17.6328L32.54356369743347,9.14952L34.23166369743347,9.14952L34.23166369743347,12.6139Q35.12906369743347,12.192,35.91966369743347,11.6257Q36.71026369743347,11.0594,37.30856369743347,10.5597Q37.90696369743347,10.06,38.259463697433475,9.71581Q38.61206369743347,9.37159,38.61206369743347,9.37159L39.808663697433474,10.593Q39.76596369743347,10.6374,39.31716369743347,11.0816Q38.86846369743347,11.5257,38.10986369743347,12.1475Q37.35136369743347,12.7694,36.35776369743347,13.4134Q35.36416369743347,14.0574,34.23166369743347,14.5015L34.23166369743347,15.8784L38.33426369743347,15.8784Q38.569363697433474,15.8784,38.569363697433474,15.6341L38.569363697433474,13.8131ZM53.33466369743347,2.57608L61.09126369743347,2.57608L61.09126369743347,4.33048L59.104063697433475,4.33048L59.104063697433475,6.01825L58.933063697433475,6.26253Q57.73646369743347,7.79486,56.43296369743347,9.094Q55.12956369743347,10.3931,53.78336369743347,11.4813L60.92026369743347,15.9895L60.04416369743347,17.4774L52.30896369743347,12.5917Q51.39016369743347,13.2579,50.53546369743347,13.8131Q49.680663697433474,14.3683,48.93286369743347,14.8124Q47.77896369743347,15.4787,46.774663697433475,15.9783Q45.770363697433474,16.478,45.03316369743347,16.8111Q44.29596369743347,17.1442,43.86856369743347,17.3108Q43.44126369743347,17.4774,43.39846369743347,17.4774L43.120763697433475,16.6557L42.86426369743347,15.834Q42.88566369743347,15.834,43.53736369743347,15.5675Q44.18916369743347,15.301,45.27886369743347,14.7791Q46.36866369743347,14.2573,47.78966369743347,13.4578Q49.210663697433475,12.6583,50.74906369743347,11.5924L45.08656369743347,8.01693L45.96266369743347,6.52903L52.24486369743347,10.5042Q53.59106369743347,9.43822,54.91586369743347,8.17239Q56.24066369743347,6.90655,57.41596369743347,5.41865L57.41596369743347,4.33048L43.120763697433475,4.33048L43.120763697433475,2.57608L51.28336369743347,2.57608L50.38586369743347,1.31025L51.75336369743347,0.288698L53.33466369743347,2.57608ZM64.06136369743348,15.8118Q65.34346369743348,14.3461,66.27296369743347,12.7805Q67.20246369743347,11.2148,67.85426369743347,9.76023Q68.50596369743347,8.30563,68.91196369743348,7.09532Q69.31796369743347,5.88501,69.51026369743347,5.10774L64.18956369743347,5.10774L64.18956369743347,3.35334L72.67276369743347,3.35334L72.67276369743347,0.510774L74.36076369743347,0.510774L74.36076369743347,3.35334L82.82256369743347,3.35334L82.82256369743347,5.10774L74.36076369743347,5.10774L74.36076369743347,13.1913L78.39936369743347,13.1913L78.39936369743347,14.9457L74.36076369743347,14.9457L74.36076369743347,17.4996L72.67276369743347,17.4996L72.67276369743347,14.9457L68.74096369743347,14.9457L68.74096369743347,13.1913L72.67276369743347,13.1913L72.67276369743347,5.10774L71.24106369743347,5.10774Q71.07016369743347,5.81838,70.67486369743347,7.12863Q70.27946369743347,8.43888,69.57436369743347,10.06Q68.86926369743347,11.6812,67.83286369743347,13.48Q66.79646369743347,15.2788,65.32216369743347,16.9888L64.06136369743348,15.8118ZM76.02746369743348,6.66227L77.52326369743348,5.84059L82.60886369743348,15.9228L81.13446369743347,16.7223L76.02746369743348,6.66227ZM95.08776369743347,6.35136L95.38696369743347,6.08487Q95.68606369743347,5.81838,96.08136369743347,5.35202Q96.47676369743347,4.88566,96.89336369743347,4.26385Q97.31006369743348,3.64204,97.56646369743348,2.90919L95.28016369743347,2.90919L95.28016369743347,1.15479L102.60946369743347,1.15479L102.60946369743347,0.710642L104.29746369743347,0.710642L104.29746369743347,5.63378Q104.29746369743347,6.48079,103.74146369743347,7.06027Q103.18646369743347,7.6394,102.37446369743347,7.6394L100.38706369743348,7.6394L100.38706369743348,5.88501L102.37446369743347,5.88501Q102.60946369743347,5.88501,102.60946369743347,5.64072L102.60946369743347,2.90919L99.31866369743346,2.90919Q99.06226369743347,3.93074,98.54946369743347,4.79683Q98.03656369743346,5.66293,97.51306369743347,6.30695Q96.98956369743347,6.95097,96.58356369743348,7.3285Q96.17756369743347,7.70603,96.13486369743347,7.72823L95.62196369743347,7.0398L95.08776369743347,6.35136ZM97.07506369743348,11.2148Q96.90406369743347,11.6368,96.70106369743347,12.0698Q96.49806369743347,12.5029,96.24166369743347,12.947L94.78866369743348,12.0587Q95.21596369743347,11.3037,95.50446369743347,10.5732Q95.79296369743348,9.84281,95.96386369743347,9.26299Q96.13486369743347,8.68316,96.19896369743347,8.32784Q96.26306369743347,7.97252,96.26306369743347,7.97252L97.92976369743347,8.26122Q97.92976369743347,8.28342,97.86566369743348,8.60543Q97.80156369743347,8.92744,97.67336369743347,9.46042L99.23316369743347,9.46042L99.23316369743347,8.03914L100.92126369743347,8.03914L100.92126369743347,9.46042L103.95546369743347,9.46042L103.95546369743347,11.2148L100.92126369743347,11.2148L100.92126369743347,13.7909L104.36146369743348,13.7909L104.36146369743348,15.5453L100.92126369743347,15.5453L100.92126369743347,17.6328L99.23316369743347,17.6328L99.23316369743347,15.5453L95.23736369743347,15.5453L95.23736369743347,13.7909L99.23316369743347,13.7909L99.23316369743347,11.2148L97.07506369743348,11.2148ZM86.41236369743348,5.8628L85.15166369743348,4.90787L85.45086369743348,4.46372Q85.74996369743347,4.01957,86.16666369743348,3.34224Q86.58336369743347,2.66491,87.02136369743347,1.83212Q87.45936369743347,0.999341,87.75856369743347,0.199868L89.31846369743347,0.82168Q89.21156369743348,1.13259,89.08336369743347,1.43239Q88.95516369743348,1.73219,88.80556369743347,2.0431L93.65616369743347,2.0431L93.65616369743347,3.52059L92.52366369743348,5.15216L93.03646369743348,5.15216L93.03646369743348,4.75242L94.72456369743347,4.75242L94.72456369743347,15.6085Q94.72456369743347,16.4315,94.16896369743347,17.01Q93.61346369743347,17.5884,92.80146369743348,17.5884L92.07486369743347,17.5884L92.07486369743347,15.8562L92.80146369743348,15.8562Q93.03646369743348,15.8562,93.03646369743348,15.6119L93.03646369743348,14.2351L91.36976369743347,14.2351L91.36976369743347,17.2109L89.68166369743348,17.2109L89.68166369743348,14.2351L87.86536369743347,14.2351Q87.75856369743347,14.8347,87.61966369743347,15.4232Q87.48076369743347,16.0117,87.35256369743347,16.478Q87.22436369743347,16.9444,87.12816369743348,17.2553Q87.03206369743347,17.5662,87.03206369743347,17.5884L85.42946369743348,17.0776Q85.53626369743347,16.7445,85.69656369743348,16.1338Q85.85676369743346,15.5231,86.01706369743347,14.8347Q86.17736369743348,14.1462,86.29486369743347,13.4578Q86.41236369743348,12.7694,86.41236369743348,12.2586L86.41236369743348,5.8628ZM89.68166369743348,12.4807L89.68166369743348,10.4598L88.07906369743347,10.4598L88.07906369743347,12.2586L88.07906369743347,12.4807L89.68166369743348,12.4807ZM89.68166369743348,8.70537L89.68166369743348,6.90655L88.07906369743347,6.90655L88.07906369743347,8.70537L89.68166369743348,8.70537ZM93.03646369743348,12.4807L93.03646369743348,10.4598L91.36976369743347,10.4598L91.36976369743347,12.4807L93.03646369743348,12.4807ZM93.03646369743348,6.90655L91.36976369743347,6.90655L91.36976369743347,8.70537L93.03646369743348,8.70537L93.03646369743348,6.90655ZM87.88676369743347,3.79749Q87.65176369743347,4.19064,87.42736369743348,4.5293Q87.20296369743347,4.86797,87.03206369743347,5.15216L90.42956369743347,5.15216L91.39116369743347,3.79749L87.88676369743347,3.79749ZM117.41746369743348,6.08487L125.60146369743347,6.08487L125.60146369743347,7.83927L123.74246369743346,7.83927L123.74246369743346,17.4774L122.05446369743348,17.4774L122.05446369743348,7.83927L117.41746369743348,7.83927L117.41746369743348,7.90589Q117.41746369743348,10.06,117.26746369743347,11.8255Q117.11846369743347,13.591,116.92546369743347,14.868Q116.73346369743348,16.1449,116.57346369743347,16.8778Q116.41346369743347,17.6106,116.39146369743347,17.6772L114.76746369743347,17.2102L114.91746369743348,16.5207Q115.06646369743348,15.8316,115.25946369743347,14.5973Q115.45146369743347,13.3631,115.60146369743347,11.651Q115.75046369743347,9.93858,115.75046369743347,7.89271L115.75046369743347,1.04376L121.71246369743348,1.04376Q122.43846369743348,1.04376,123.04746369743347,0.980256Q123.65646369743347,0.916409,124.08446369743348,0.810576Q124.59746369743347,0.72591,125.00346369743347,0.577396L125.55846369743347,2.22076Q125.53746369743347,2.22076,125.24846369743346,2.32069Q124.96046369743347,2.42063,124.44746369743348,2.52056Q123.93446369743347,2.62049,123.24046369743347,2.70932Q122.54546369743348,2.79815,121.71246369743348,2.79815L117.41746369743348,2.79815L117.41746369743348,6.08487ZM111.60546369743348,4.19723L111.60546369743348,17.6106L109.91746369743348,17.6106L109.91746369743348,4.19723L109.61846369743347,4.19723Q109.59646369743348,4.79683,109.54346369743347,5.72955Q109.48946369743348,6.66227,109.41546369743347,7.80596Q109.34046369743348,8.94965,109.23346369743348,10.2377Q109.12646369743346,11.5257,108.99846369743346,12.8138Q108.87046369743346,14.1018,108.69946369743347,15.3232Q108.52846369743347,16.5446,108.33646369743347,17.5662L106.69046369743347,17.2109Q106.88246369743347,16.2559,107.03246369743347,15.0789Q107.18246369743348,13.9019,107.32146369743347,12.6583Q107.45946369743348,11.4147,107.55646369743347,10.16Q107.65246369743348,8.90524,107.72746369743348,7.78375Q107.80146369743348,6.66227,107.85546369743348,5.72955Q107.90846369743348,4.79683,107.93046369743347,4.19723L107.03246369743347,4.19723L107.03246369743347,2.44283L109.91746369743348,2.44283L109.91746369743348,0.466359L111.60546369743348,0.466359L111.60546369743348,2.44283L114.46846369743348,2.44283L114.46846369743348,4.19723L111.60546369743348,4.19723ZM113.59246369743347,5.59631L114.70346369743348,17.2997L113.01546369743347,17.4774L111.92546369743347,5.75176L113.59246369743347,5.59631Z" fill="#3D3D3D" fill-opacity="1"/></g><g><path d="M0,8.67224246998787Q0.277785,8.561202469987869,0.683777,8.36134246998787Q1.08977,8.161472469987869,1.55987,7.89498246998787Q2.02996,7.62849246998787,2.51074,7.2953724699878695Q2.99153,6.962262469987869,3.41889,6.584732469987869L0.405993,6.584732469987869L0.405993,4.830332469987869L4.65823,4.830332469987869Q4.72234,4.611732469987869,4.72234,4.327192469987869L4.72234,3.3646324699878694L2.24364,3.3646324699878694Q2.02996,3.675542469987869,1.79492,4.008652469987869Q1.55987,4.34177246998787,1.28208,4.674882469987869L0,3.520092469987869Q0.512833,2.9173624699878693,0.886774,2.3358024699878692Q1.26071,1.7542424699878694,1.49576,1.3066224699878692Q1.77355,0.7698194699878693,1.96586,0.27778246998786926L3.54709,0.8773874699878693Q3.52573,0.8995954699878692,3.46162,1.0994634699878691Q3.39752,1.2993324699878692,3.22657,1.6102324699878692L9.65835,1.6102324699878692L9.65835,3.3646324699878694L6.41041,3.3646324699878694L6.41041,4.327192469987869Q6.41041,4.458362469987869,6.39973,4.58987246998787Q6.38904,4.721032469987869,6.36768,4.830332469987869L10.2567,4.830332469987869L10.2567,6.584732469987869L6.96598,6.584732469987869L10.3849,8.58341246998787L9.55151,10.093532469987869L5.70527,7.850562469987869L6.38904,6.584732469987869L5.6839,6.584732469987869Q4.89328,7.739522469987869,3.39752,8.783282469987869Q2.88469,9.13860246998787,2.39322,9.41620246998787Q1.90176,9.69379246998787,1.51713,9.89366246998787Q1.13251,10.093532469987869,0.886774,10.20456246998787Q0.641041,10.31558246998787,0.619673,10.31558246998787L0.320521,9.493922469987869L0,8.67224246998787Z" fill="#F8B62D" fill-opacity="1"/></g><g><path d="M18.697025407714843,7.645563387031555Q18.697025407714843,8.489443387031555,18.130775407714843,9.066843387031554Q17.564525407714843,9.644243387031555,16.773905407714842,9.644243387031555L10.790855407714844,9.644243387031555L10.790855407714844,1.693929387031555L17.008955407714843,1.693929387031555L17.008955407714843,1.2941933870315552L18.697025407714843,1.2941933870315552L18.697025407714843,7.645563387031555ZM17.008955407714843,3.448323387031555L12.457565407714844,3.448323387031555L12.457565407714844,7.889843387031555L16.773905407714842,7.889843387031555Q16.880745407714844,7.889843387031555,16.944855407714844,7.8128133870315555Q17.008955407714843,7.735773387031555,17.008955407714843,7.626123387031555L17.008955407714843,3.448323387031555Z" fill="#036EB8" fill-opacity="1"/></g></g></svg>